<svg xmlns="http://www.w3.org/2000/svg" height="869" fill="none" class="absolute -top-[--header-height] inset-x-0 w-full hidden lg:block" viewBox="0 0 1440 869"><g stroke-width="2" clip-path="url(#a)"><path stroke="url(#b)" d="m1446 275.643-9.98-.661a20.98 20.98 0 0 0-9.65 1.649l-3.72 1.593a21.011 21.011 0 0 1-11.71 1.41l-3.84-.638a20.986 20.986 0 0 1-4.08-1.11l-16.71-6.413a15.377 15.377 0 0 0-13.86 1.441l-6.69 4.32a5.519 5.519 0 0 1-6.9-.732 5.538 5.538 0 0 0-7.75-.069l-6.19 5.97a14.307 14.307 0 0 1-16.71 2.291L1326 283.5a17.758 17.758 0 0 0-17.67.476l-9.3 5.678-13.44 6.36a20.997 20.997 0 0 0-8.82 7.839l-3.84 6.134a20.995 20.995 0 0 1-7.69 7.262l-11.32 6.219a20.97 20.97 0 0 0-6.58 5.663l-12.3 16.105c-.67.889-1.42 1.722-2.23 2.492l-17.62 16.716c-.77.732-1.6 1.396-2.49 1.985l-9.08 6.048a6.234 6.234 0 0 1-8.18-1.126 6.208 6.208 0 0 0-6.02-2.033l-4.86 1.042a14.6 14.6 0 0 1-10.4-1.659l-1.12-.652a17.936 17.936 0 0 0-12.78-2.039l-.27.057a18.35 18.35 0 0 1-13.08-2.087 18.383 18.383 0 0 0-12.53-2.198l-1.12.205c-2.13.386-4.3.442-6.44.167l-14.61-1.879a21.002 21.002 0 0 0-20.33 9.459l-7.28 11.299a9.95 9.95 0 0 1-10 4.433 9.949 9.949 0 0 0-9.19 3.337l-.4.463c-4.12 4.794-11.59 4.635-15.49-.332l-.44-.546a8.767 8.767 0 0 0-7.87-3.297 8.788 8.788 0 0 1-7.12-2.463l-.53-.525a10.374 10.374 0 0 0-8.61-2.881l-8.21 1.077a20.985 20.985 0 0 0-14.93 9.462l-.91 1.414c-.3.459-.56.941-.78 1.441a10.68 10.68 0 0 1-12.212 6.057l-65.08-15.356a21.002 21.002 0 0 0-21.258 7.366l-20.289 25.507a20.99 20.99 0 0 0-3.682 7.047l-2.036 6.798a21 21 0 0 1-12.04 13.359l-29.895 12.456a20.905 20.905 0 0 0-3.712 2.006l-24.453 16.587-26.6 18.21a21 21 0 0 0-7.072 8.246l-6.338 13.215a21.008 21.008 0 0 1-4.113 5.794l-2.437 2.428a20.998 20.998 0 0 1-11.536 5.865l-4.321.684a12.654 12.654 0 0 0-5.534 2.317c-5.772 4.261-13.929 2.875-17.968-3.055l-1.91-2.803a15.913 15.913 0 0 0-17.849-6.247l-23.833 7.359c-1.559.482-3.17.78-4.799.889l-28.683 1.912a21.05 21.05 0 0 0-4.875.912l-25.389 7.946a20.996 20.996 0 0 1-6.26.958l-14.68.008a20.993 20.993 0 0 1-12.068-3.805l-19.947-13.986a20.986 20.986 0 0 0-12.068-3.806l-7.375.004-9.074.005a20.992 20.992 0 0 0-9.355 2.205l-11.647 5.804a21.002 21.002 0 0 1-7.512 2.123l-10.44.926c-6.788.602-13.184 4.648-19.475 7.269-4.498 1.874-10.836 3.333-19.375 3.338-10.568.006-22.306 5.843-31.887 12.356-6.211 4.223-26.76 12.866-34.27 12.87-.903.001-3.674.16-4.534.431-33.268 10.507-43.35-7.839-52.984-13.057-3.153-1.708-6.799-.26-9.786 1.726l-21.526 14.309a21.003 21.003 0 0 1-20.237 1.664l-11.133-5.006-24.034-9.765a20.998 20.998 0 0 0-19.53 1.966l-38.774 25.773a20.984 20.984 0 0 1-5.226 2.513l-48.748 15.595a20.975 20.975 0 0 1-6.387.999l-23.541.013a21 21 0 0 1-19.654-13.572l-3.72-9.835c-3.09-8.171-10.41-11.249-18.289-7.476-11.994 5.743-29.19 13.468-38.697 13.473-15.131.009-61.873-12.998-83.353-19.502" class="svg-elem-1"/><path stroke="url(#c)" stroke-opacity=".5" d="m1464.92 266.565-14.35-8.298a20.999 20.999 0 0 0-9-2.765l-5.39-.388c-3.18-.229-6.38.27-9.34 1.46l-4.69 1.883a20.972 20.972 0 0 1-10.46 1.348l-4.09-.517a21.011 21.011 0 0 1-5.18-1.34l-16.65-6.667a15.035 15.035 0 0 0-13.74 1.321l-6.66 4.293a5.413 5.413 0 0 1-6.83-.793 5.408 5.408 0 0 0-7.69-.102l-6.24 6.135a14.059 14.059 0 0 1-17.02 2.083l-1.72-1.016a16.676 16.676 0 0 0-17.18.13l-9.61 5.882-14.2 7.007a21.008 21.008 0 0 0-8.34 7.43l-4.26 6.589a20.98 20.98 0 0 1-7.1 6.766l-11.83 6.862a20.994 20.994 0 0 0-5.77 4.929l-14.12 17.395-18.04 18.201c-.87.886-1.84 1.681-2.87 2.375l-8.69 5.812a6.463 6.463 0 0 1-8.35-.992 6.47 6.47 0 0 0-5.77-2.004l-5.33.844c-3.73.59-7.54-.11-10.81-1.984l-.58-.329a18.42 18.42 0 0 0-12.04-2.21l-1.83.29c-4.34.687-8.78-.055-12.65-2.112a20.252 20.252 0 0 0-12.66-2.113l-.77.122c-1.96.31-3.95.342-5.92.093l-15.05-1.901a21.003 21.003 0 0 0-20.34 9.544l-7.17 11.244a10.64 10.64 0 0 1-10.42 4.822l-.32-.044c-3.37-.461-6.74.815-8.96 3.39-4.04 4.681-11.31 4.636-15.29-.093l-1.14-1.355a8.311 8.311 0 0 0-7.65-2.853 8.321 8.321 0 0 1-6.96-2.119l-.82-.766a10.618 10.618 0 0 0-8.89-2.709l-8.95 1.417c-5.3.84-10.08 3.68-13.35 7.936l-1.37 1.78a10.088 10.088 0 0 0-1.244 2.084 10.204 10.204 0 0 1-11.674 5.793l-65.511-15.484a21 21 0 0 0-21.272 7.373l-20.306 25.554a21.015 21.015 0 0 0-3.677 7.047l-2.043 6.83a21 21 0 0 1-12.038 13.365l-29.92 12.475a21.031 21.031 0 0 0-3.714 2.008l-24.468 16.612-26.62 18.24a20.994 20.994 0 0 0-7.07 8.251l-6.346 13.248a21.002 21.002 0 0 1-4.11 5.796l-2.442 2.435a21.002 21.002 0 0 1-11.544 5.873l-4.322.684a12.661 12.661 0 0 0-5.539 2.321c-5.774 4.266-13.937 2.878-17.976-3.057l-1.917-2.817a15.93 15.93 0 0 0-17.871-6.257l-23.84 7.366a21.037 21.037 0 0 1-4.804.89l-28.703 1.911c-1.657.11-3.295.417-4.88.913l-25.404 7.954a21.006 21.006 0 0 1-6.267.96l-14.691.005a20.993 20.993 0 0 1-12.073-3.812l-19.97-14.018a21.005 21.005 0 0 0-12.073-3.812l-7.382.003-9.079.004c-3.25.001-6.456.757-9.364 2.207l-11.653 5.812a20.99 20.99 0 0 1-7.518 2.126l-10.447.926c-6.793.602-13.192 4.652-19.486 7.277-4.502 1.877-10.844 3.338-19.392 3.341-10.577.005-22.325 5.853-31.913 12.377-6.217 4.231-26.763 12.88-34.282 12.883-.905 0-3.683.159-4.545.432-33.288 10.517-43.381-7.861-53.022-13.089-3.156-1.712-6.805-.262-9.794 1.727l-21.538 14.329a21 21 0 0 1-20.253 1.664l-11.142-5.016-24.053-9.786a20.997 20.997 0 0 0-19.545 1.968l-38.798 25.811a21.031 21.031 0 0 1-5.229 2.516l-48.78 15.614a21.02 21.02 0 0 1-6.394.999l-23.567.009a20.999 20.999 0 0 1-19.653-13.576l-3.74-9.897c-3.089-8.173-10.407-11.25-18.286-7.474-12.002 5.751-29.217 13.491-38.733 13.495" class="svg-elem-2"/><path stroke="url(#d)" stroke-opacity=".25" d="m1467.92 245.565-14.35-8.297a20.988 20.988 0 0 0-9-2.767l-5.38-.388c-3.19-.229-6.38.27-9.34 1.46l-4.69 1.882a20.968 20.968 0 0 1-10.46 1.348l-4.09-.518a21.004 21.004 0 0 1-5.17-1.339l-16.65-6.669a15.035 15.035 0 0 0-13.74 1.322l-6.66 4.292a5.4 5.4 0 0 1-6.82-.793 5.42 5.42 0 0 0-7.7-.102l-6.23 6.134a14.059 14.059 0 0 1-17.02 2.083l-1.72-1.016a16.656 16.656 0 0 0-17.17.129l-9.61 5.881-14.19 7.005a21.013 21.013 0 0 0-8.34 7.432l-4.26 6.587a20.883 20.883 0 0 1-7.1 6.767l-11.82 6.86a21.001 21.001 0 0 0-5.77 4.931l-14.12 17.393-18.03 18.201c-.88.885-1.84 1.681-2.88 2.374l-8.68 5.811a6.464 6.464 0 0 1-8.35-.991 6.464 6.464 0 0 0-5.77-2.005l-5.33.844c-3.72.59-7.53-.11-10.81-1.984l-.57-.329a18.43 18.43 0 0 0-12.04-2.21l-1.83.289c-4.33.687-8.77-.055-12.65-2.113a20.24 20.24 0 0 0-12.65-2.113l-.77.122c-1.96.31-3.95.341-5.92.093l-15.04-1.901a20.994 20.994 0 0 0-20.34 9.546l-7.17 11.241a10.635 10.635 0 0 1-10.41 4.821l-.32-.044a10.05 10.05 0 0 0-8.97 3.389c-4.04 4.68-11.3 4.636-15.28-.093l-1.14-1.356a8.313 8.313 0 0 0-7.65-2.853 8.3 8.3 0 0 1-6.95-2.119l-.83-.766a10.592 10.592 0 0 0-8.88-2.71l-8.94 1.416a20.976 20.976 0 0 0-13.36 7.939l-1.37 1.778c-.5.643-.91 1.342-1.24 2.084a10.203 10.203 0 0 1-11.674 5.791l-65.487-15.484a21 21 0 0 0-21.276 7.374l-20.296 25.55a20.975 20.975 0 0 0-3.676 7.047l-2.042 6.828a20.997 20.997 0 0 1-12.037 13.367l-29.909 12.472a21.015 21.015 0 0 0-3.715 2.009l-24.46 16.611-26.611 18.237a21.001 21.001 0 0 0-7.069 8.252l-6.344 13.247a21.003 21.003 0 0 1-4.109 5.797l-2.439 2.433a21.006 21.006 0 0 1-11.546 5.874l-4.317.683a12.652 12.652 0 0 0-5.538 2.321c-5.772 4.266-13.933 2.878-17.97-3.056l-1.919-2.819a15.924 15.924 0 0 0-17.867-6.256l-23.831 7.363a20.958 20.958 0 0 1-4.805.89l-28.694 1.91c-1.657.11-3.295.417-4.881.913l-25.394 7.953a20.991 20.991 0 0 1-6.269.959l-14.682.006a21.004 21.004 0 0 1-12.075-3.814l-19.962-14.017a21 21 0 0 0-12.075-3.813l-7.377.002-9.074.004a21.002 21.002 0 0 0-9.367 2.208l-11.646 5.809a20.995 20.995 0 0 1-7.52 2.126l-10.437.926c-6.794.602-13.194 4.653-19.489 7.278-4.5 1.876-10.84 3.336-19.383 3.339-10.575.004-22.321 5.852-31.907 12.377-6.215 4.23-26.751 12.877-34.269 12.88-.905 0-3.684.159-4.546.432-33.276 10.514-43.368-7.86-53.006-13.091-3.156-1.713-6.806-.262-9.796 1.727l-21.525 14.324a21.002 21.002 0 0 1-20.257 1.665l-11.135-5.015-24.042-9.785a21.001 21.001 0 0 0-19.55 1.968l-38.781 25.805a20.96 20.96 0 0 1-5.231 2.517l-48.763 15.611a21.001 21.001 0 0 1-6.395 1l-23.557.008a20.999 20.999 0 0 1-19.651-13.577l-3.74-9.897c-3.088-8.173-10.406-11.25-18.285-7.473-11.998 5.751-29.207 13.488-38.719 13.492-15.139.005-61.906-13.033-83.397-19.553" class="svg-elem-3"/><path stroke="url(#e)" stroke-opacity=".1" d="m1464.92 224.565-14.35-8.297a20.988 20.988 0 0 0-9-2.767l-5.38-.388c-3.19-.229-6.38.27-9.34 1.46l-4.69 1.882a20.968 20.968 0 0 1-10.46 1.348l-4.09-.518a21.004 21.004 0 0 1-5.17-1.339l-16.65-6.669a15.035 15.035 0 0 0-13.74 1.322l-6.66 4.292a5.4 5.4 0 0 1-6.82-.793 5.42 5.42 0 0 0-7.7-.102l-6.23 6.134a14.059 14.059 0 0 1-17.02 2.083l-1.72-1.016a16.656 16.656 0 0 0-17.17.129l-9.61 5.881-14.19 7.005a21.013 21.013 0 0 0-8.34 7.432l-4.26 6.587a20.883 20.883 0 0 1-7.1 6.767l-11.82 6.86a21.001 21.001 0 0 0-5.77 4.931l-14.12 17.393-18.03 18.201c-.88.885-1.84 1.681-2.88 2.374l-8.68 5.811a6.464 6.464 0 0 1-8.35-.991 6.464 6.464 0 0 0-5.77-2.005l-5.33.844c-3.72.59-7.53-.11-10.81-1.984l-.57-.329a18.43 18.43 0 0 0-12.04-2.21l-1.83.289c-4.33.687-8.77-.055-12.65-2.113a20.24 20.24 0 0 0-12.65-2.113l-.77.122c-1.96.31-3.95.341-5.92.093l-15.04-1.901a20.994 20.994 0 0 0-20.34 9.546l-7.17 11.241a10.635 10.635 0 0 1-10.41 4.821l-.32-.044a10.05 10.05 0 0 0-8.97 3.389c-4.04 4.68-11.3 4.636-15.28-.093l-1.14-1.356a8.313 8.313 0 0 0-7.65-2.853 8.3 8.3 0 0 1-6.95-2.119l-.83-.766a10.592 10.592 0 0 0-8.88-2.71l-8.94 1.416a20.976 20.976 0 0 0-13.36 7.939l-1.37 1.778a9.963 9.963 0 0 0-1.241 2.084 10.201 10.201 0 0 1-11.673 5.791l-65.487-15.484a21 21 0 0 0-21.276 7.374l-20.296 25.55a20.975 20.975 0 0 0-3.676 7.047l-2.042 6.828a20.997 20.997 0 0 1-12.037 13.367l-29.909 12.472a21.015 21.015 0 0 0-3.715 2.009l-24.46 16.611-26.611 18.237a21.001 21.001 0 0 0-7.069 8.252l-6.344 13.247a21.003 21.003 0 0 1-4.109 5.797l-2.439 2.433a21.006 21.006 0 0 1-11.546 5.874l-4.317.683a12.652 12.652 0 0 0-5.538 2.321c-5.772 4.266-13.933 2.878-17.97-3.056l-1.919-2.819a15.924 15.924 0 0 0-17.867-6.256l-23.831 7.363a20.958 20.958 0 0 1-4.805.89l-28.694 1.91c-1.657.11-3.295.417-4.881.913l-25.394 7.953a20.991 20.991 0 0 1-6.269.959l-14.682.006a21.004 21.004 0 0 1-12.075-3.814l-19.962-14.017a21 21 0 0 0-12.075-3.813l-7.377.002-9.074.004a21.002 21.002 0 0 0-9.367 2.208l-11.646 5.809a20.995 20.995 0 0 1-7.52 2.126l-10.437.926c-6.794.602-13.194 4.653-19.489 7.278-4.5 1.876-10.84 3.336-19.383 3.339-10.575.004-22.321 5.852-31.907 12.377-6.215 4.23-26.751 12.877-34.269 12.88-.905 0-3.684.159-4.546.432-33.276 10.514-43.368-7.86-53.006-13.091-3.156-1.713-6.806-.262-9.796 1.727l-21.525 14.324a21.002 21.002 0 0 1-20.257 1.665l-11.135-5.015-24.042-9.785a21.001 21.001 0 0 0-19.55 1.968l-38.781 25.805a20.96 20.96 0 0 1-5.231 2.517l-48.763 15.611a21.001 21.001 0 0 1-6.395 1l-23.557.008a20.999 20.999 0 0 1-19.651-13.577l-3.74-9.897c-3.088-8.173-10.406-11.25-18.285-7.473-11.998 5.751-29.207 13.488-38.719 13.492-15.139.005-61.906-13.033-83.397-19.553" class="svg-elem-4"/></g><defs><linearGradient id="b" x1="1419.37" x2="3.813" y1="282.77" y2="550.717" gradientUnits="userSpaceOnUse"><stop stop-color="#00DC82" stop-opacity="0"/><stop offset=".203" stop-color="#00DC82"/><stop offset=".333" stop-color="#00DC82" stop-opacity="0"/><stop offset=".667" stop-color="#00DC82" stop-opacity="0"/><stop offset=".757" stop-color="#00DC82"/><stop offset=".995" stop-color="#00DC82" stop-opacity="0"/></linearGradient><linearGradient id="c" x1="1433.93" x2="-4.146" y1="259.854" y2="537.487" gradientUnits="userSpaceOnUse"><stop stop-color="#00DC82" stop-opacity="0"/><stop offset=".203" stop-color="#00DC82"/><stop offset=".333" stop-color="#00DC82" stop-opacity="0"/><stop offset=".667" stop-color="#00DC82" stop-opacity="0"/><stop offset=".757" stop-color="#00DC82"/><stop offset=".995" stop-color="#00DC82" stop-opacity="0"/></linearGradient><linearGradient id="d" x1="1438.07" x2="6.644" y1="238.674" y2="510.046" gradientUnits="userSpaceOnUse"><stop stop-color="#00DC82" stop-opacity="0"/><stop offset=".203" stop-color="#00DC82"/><stop offset=".333" stop-color="#00DC82" stop-opacity="0"/><stop offset=".667" stop-color="#00DC82" stop-opacity="0"/><stop offset=".757" stop-color="#00DC82"/><stop offset=".995" stop-color="#00DC82" stop-opacity="0"/></linearGradient><linearGradient id="e" x1="1435.07" x2="3.644" y1="217.674" y2="489.046" gradientUnits="userSpaceOnUse"><stop stop-color="#00DC82" stop-opacity="0"/><stop offset=".203" stop-color="#00DC82"/><stop offset=".333" stop-color="#00DC82" stop-opacity="0"/><stop offset=".667" stop-color="#00DC82" stop-opacity="0"/><stop offset=".757" stop-color="#00DC82"/><stop offset=".995" stop-color="#00DC82" stop-opacity="0"/></linearGradient><clipPath id="a"><path fill="#fff" d="M-73 144 1403.49-63.507l101.874 724.876L28.874 868.876z" class="svg-elem-5"/></clipPath></defs></svg>